Coordinates
version=1
nRows=24
nColumns=24
inDegrees=yes

Units are S.I. units (second, meters, Newtons, ...)
Angles are in degrees.

endheader
time	pelvis_tilt	pelvis_list	pelvis_rotation	pelvis_tx	pelvis_ty	pelvis_tz	hip_flexion_r	hip_adduction_r	hip_rotation_r	knee_angle_r	ankle_angle_r	subtalar_angle_r	mtp_angle_r	hip_flexion_l	hip_adduction_l	hip_rotation_l	knee_angle_l	ankle_angle_l	subtalar_angle_l	mtp_angle_l	lumbar_extension	lumbar_bending	lumbar_rotation
      0.57066667	      3.39243918	     -2.19019894	      3.35767595	     -0.51224041	      1.08642718	      0.30798077	      6.10004188	      5.91216902	     -0.57218215	    -15.16419300	      4.25788705	    -10.59560198	      5.00187396	     13.87548418	     -7.97309901	     -4.59268926	    -70.09410550	      4.88138515	      2.45274706	      3.94557949	    -17.52390479	      6.30765330	      0.02558692
      0.57483333	      3.38533852	     -1.99968776	      3.29857379	     -0.50727860	      1.08753735	      0.30823597	      5.61389822	      5.73338105	     -0.50433446	    -14.78322645	      4.29460278	    -10.53092996	      4.99575467	     14.34609849	     -7.74751629	     -4.71205570	    -69.66158181	      5.13280300	      2.64036921	      3.95323689	    -17.54539328	      6.04987607	      0.07093835
      0.57900000	      3.40235569	     -1.82385176	      3.21139376	     -0.50237599	      1.08861834	      0.30852045	      5.11069674	      5.57441187	     -0.38432249	    -14.41346107	      4.35728065	    -10.46625632	      4.98627170	     14.77377496	     -7.54806761	     -4.85985915	    -69.17850000	      5.39956578	      2.94769031	      3.96646947	    -17.64118351	      5.82182435	      0.20666445
      0.58316667	      3.44424147	     -1.65436749	      3.11376683	     -0.49745252	      1.08970263	      0.30880978	      4.57221431	      5.42235202	     -0.26124149	    -14.02333023	      4.42286375	    -10.40706296	      4.97058544	     15.15454557	     -7.36560266	     -5.03507372	    -68.64096084	      5.65611549	      3.24806780	      3.98664790	    -17.74228907	      5.57850803	      0.40630483
      0.58733333	      3.46621153	     -1.49692290	      3.01027796	     -0.49252628	      1.09070519	      0.30908348	      4.06169953	      5.27859317	     -0.14132557	    -13.64288007	      4.46339126	    -10.35347786	      4.95347312	     15.54436157	     -7.19482536	     -5.21543385	    -68.05635867	      5.91362046	      3.56562742	      4.01260113	    -17.82047944	      5.35503938	      0.56857203
      0.59150000	      3.46195978	     -1.32264820	      2.88895363	     -0.48760643	      1.09163629	      0.30936618	      3.59215166	      5.11170134	     -0.01838236	    -13.28786490	      4.50724024	    -10.28722087	      4.94426449	     15.93965784	     -7.00183099	     -5.41257157	    -67.40785841	      6.15420698	      3.89358420	      4.03320105	    -17.86552566	      5.12075103	      0.66503558
      0.59566667	      3.51642728	     -1.17170152	      2.75760998	     -0.48271592	      1.09258979	      0.30966503	      3.05204651	      4.97419695	      0.12630971	    -12.90781966	      4.57475369	    -10.22959739	      4.92847631	     16.25874035	     -6.85025283	     -5.63365421	    -66.71962212	      6.40391002	      4.25146667	      4.06618957	    -17.98669208	      4.89071202	      0.88205736
      0.59983333	      3.51679185	     -1.02498432	      2.61750862	     -0.47780472	      1.09340999	      0.30995507	      2.58137946	      4.83449087	      0.27075183	    -12.55036920	      4.62967874	    -10.17530842	      4.91292432	     16.62127380	     -6.69896680	     -5.86109118	    -65.98223528	      6.64076581	      4.60167294	      4.09919576	    -18.03423979	      4.67351076	      1.05168381
      0.60400000	      3.55410981	     -0.88525951	      2.47031090	     -0.47292472	      1.09423790	      0.31023168	      2.07309723	      4.70077888	      0.42091449	    -12.19114431	      4.67837716	    -10.11825127	      4.89560938	     16.92719295	     -6.55670530	     -6.09660822	    -65.19377461	      6.87284709	      4.94364683	      4.13552592	    -18.13604582	      4.46453528	      1.23686491
      0.60816667	      3.56853399	     -0.75195791	      2.31574328	     -0.46803255	      1.09497332	      0.31052075	      1.59672599	      4.57066769	      0.57194559	    -11.84595787	      4.73735761	    -10.06251709	      4.87803364	     17.24235674	     -6.42504967	     -6.34364468	    -64.35970670	      7.08963696	      5.27311944	      4.17215913	    -18.20290683	      4.26130085	      1.41702348
      0.61233333	      3.54724420	     -0.61489804	      2.15364044	     -0.46313140	      1.09559940	      0.31078701	      1.17198618	      4.42958703	      0.71063129	    -11.52570578	      4.78649260	     -9.99329151	      4.86905750	     17.57870438	     -6.28192228	     -6.59283489	    -63.47379464	      7.29023858	      5.57227783	      4.19434557	    -18.22056026	      4.06537273	      1.51794622
      0.61650000	      3.56436143	     -0.48972529	      1.98522739	     -0.45824781	      1.09623931	      0.31106866	      0.70445312	      4.30251492	      0.86550342	    -11.19947900	      4.85693755	     -9.93526798	      4.85843616	     17.85578641	     -6.16028619	     -6.85558408	    -62.54040156	      7.48468209	      5.87699428	      4.21889370	    -18.29094723	      3.87377052	      1.68622079
      0.62066667	      3.58509013	     -0.40172399	      1.82643002	     -0.45337230	      1.09679319	      0.31132754	      0.22588652	      4.21545816	      1.03319799	    -10.85118572	      4.93546395	     -9.89604039	      4.83755188	     18.12810643	     -6.08040542	     -7.10810702	    -61.58639378	      7.67161910	      6.15930240	      4.25596470	    -18.36600835	      3.70877620	      1.96266782
      0.62483333	      3.57637809	     -0.29522206	      1.65570108	     -0.44848273	      1.09726626	      0.31158563	     -0.20444969	      4.10223025	      1.19304917	    -10.54008954	      5.00896289	     -9.84118742	      4.81620649	     18.40571059	     -5.97383867	     -7.36618164	    -60.56858890	      7.82946708	      6.39792778	      4.29026401	    -18.40245057	      3.53642601	      2.14982056
      0.62900000	      3.58182907	     -0.20390743	      1.48879137	     -0.44360953	      1.09769752	      0.31182618	     -0.64620777	      4.00297331	      1.34220588	    -10.23210858	      5.08708150	     -9.78448653	      4.79353965	     18.65671881	     -5.88364613	     -7.62213753	    -59.51255509	      7.97356932	      6.61351936	      4.32257878	    -18.45395967	      3.38251612	      2.32804456
      0.63316667	      3.54242950	     -0.11411142	      1.32095547	     -0.43870917	      1.09800575	      0.31204495	     -1.02797767	      3.90007469	      1.47987053	     -9.94938492	      5.15812885	     -9.72211715	      4.78057856	     18.93855698	     -5.78721693	     -7.87053554	    -58.40880261	      8.09378181	      6.78942943	      4.34099987	    -18.44553034	      3.24184134	      2.43652515
      0.63733333	      3.54542548	     -0.05133924	      1.15973853	     -0.43384052	      1.09830108	      0.31225813	     -1.46329068	      3.82792615	      1.63721193	     -9.64522755	      5.25483936	     -9.67198851	      4.75390356	     19.16645984	     -5.72205339	     -8.10846274	    -57.27631948	      8.20202238	      6.94898033	      4.37280904	    -18.50105137	      3.11435118	      2.68227666
      0.64150000	      3.50476261	      0.01171175	      1.00066082	     -0.42893539	      1.09847118	      0.31245311	     -1.84130192	      3.75123250	      1.77609809	     -9.36527467	      5.35382632	     -9.62010639	      4.72625389	     19.42397180	     -5.65103158	     -8.34351557	    -56.09821329	      8.27909418	      7.06577376	      4.40296637	    -18.48690682	      2.99753607	      2.85795763
      0.64566667	      3.48362658	      0.07130235	      0.84449949	     -0.42404947	      1.09861501	      0.31262996	     -2.23428419	      3.67587600	      1.90757425	     -9.09580412	      5.45913601	     -9.55767991	      4.69918683	     19.64316498	     -5.57818643	     -8.56723849	    -54.87442695	      8.33361057	      7.15022786	      4.43058680	    -18.50079694	      2.88633867	      3.01430476
      0.64983333	      3.41955872	      0.11078038	      0.69780739	     -0.41913672	      1.09862456	      0.31278022	     -2.57394584	      3.61978814	      2.02570095	     -8.84193170	      5.55235749	     -9.49935495	      4.68581615	     19.89832498	     -5.52059249	     -8.77072882	    -53.61890387	      8.37103144	      7.21902907	      4.44362496	    -18.45782554	      2.81289734	      3.10080227
      0.65400000	      3.36235499	      0.14652320	      0.55477416	     -0.41422302	      1.09859896	      0.31292309	     -2.92061218	      3.56738365	      2.14890656	     -8.58929653	      5.66367008	     -9.44334851	      4.67215800	     20.12710073	     -5.46191309	     -8.96411008	    -52.31661099	      8.37551060	      7.25132013	      4.45573373	    -18.42271857	      2.73779542	      3.22279485
      0.65816667	      3.32751651	      0.16708884	      0.42241053	     -0.40932482	      1.09854090	      0.31303336	     -3.29016784	      3.52967802	      2.26313860	     -8.33795414	      5.78193348	     -9.38977405	      4.65589660	     20.31949747	     -5.41315665	     -9.13867428	    -50.97967597	      8.35649162	      7.25452113	      4.46938556	    -18.41492978	      2.67906359	      3.36359800
      0.66233333	      3.27703572	      0.17736536	      0.29924326	     -0.40441269	      1.09839476	      0.31311872	     -3.64029391	      3.50191870	      2.36807204	     -8.09270750	      5.90366849	     -9.33839857	      4.63956324	     20.51482632	     -5.36891217	     -9.29737917	    -49.60755069	      8.31699254	      7.23812125	      4.48289743	    -18.39567373	      2.63968550	      3.49459821
      0.66650000	      3.22415674	      0.18258629	      0.18295588	     -0.39949220	      1.09820100	      0.31318739	     -3.98500529	      3.47821202	      2.46743352	     -7.85567617	      6.03559125	     -9.28231685	      4.62087817	     20.69362839	     -5.32045557	     -9.43177242	    -48.18934894	      8.24720664	      7.18903124	      4.49845893	    -18.35795726	      2.60248227	      3.62527983
